<svg width="200" height="200" viewBox="0 0 200 200" fill="none" xmlns="http://www.w3.org/2000/svg">
<g clip-path="url(#clip0_545_30856)">
<circle cx="48.2758" cy="174.843" r="2.09121" fill="#39BEE8"/>
<circle cx="144.471" cy="177.631" r="3.48535" fill="#FF9F67"/>
<ellipse cx="108.224" cy="21.4873" rx="3.48535" ry="3.48535" fill="#B3DB64"/>
<rect width="12.5473" height="2.78828" rx="1.39414" transform="matrix(0.981627 -0.190809 -0.190809 -0.981627 177.28 95.0962)" fill="#999999"/>
<rect x="167.297" y="81.441" width="12.5473" height="2.78828" rx="1.39414" transform="rotate(-60 167.297 81.441)" fill="#999999"/>
<rect x="173.341" y="85.9897" width="12.5473" height="2.78828" rx="1.39414" transform="rotate(-40 173.341 85.9897)" fill="#999999"/>
<circle cx="99.5" cy="102.5" r="71.5" fill="#F4F4F4"/>
<path fill-rule="evenodd" clip-rule="evenodd" d="M124.071 61.2643V62H124.709L124.071 61.2643ZM70.6328 144.581L70.4387 145.562C70.9437 145.662 71.4657 145.714 72 145.714H73.9286V144.714V143.714H72C71.5967 143.714 71.2047 143.675 70.8268 143.6L70.6328 144.581ZM124.071 144.714V145.714H126C126.534 145.714 127.056 145.662 127.561 145.562L127.367 144.581L127.173 143.6C126.795 143.675 126.403 143.714 126 143.714H124.071V144.714ZM132.653 142.159C132.068 143.032 131.317 143.783 130.445 144.367L129.889 143.536L129.332 142.705C129.987 142.266 130.552 141.702 130.991 141.047L131.822 141.603L132.653 142.159ZM72 60H73.9286V61V62H72C71.5967 62 71.2047 62.0395 70.8268 62.1142L70.6328 61.1333L70.4387 60.1523C70.9437 60.0524 71.4657 60 72 60ZM68.1114 62.1784L67.5551 61.3475C66.6827 61.9315 65.9315 62.6827 65.3475 63.5551L66.1784 64.1114L67.0094 64.6677C67.448 64.0125 68.0125 63.448 68.6677 63.0094L68.1114 62.1784ZM65 135.778H64V137.714C64 138.249 64.0524 138.771 64.1523 139.276L65.1333 139.082L66.1142 138.887C66.0395 138.51 66 138.118 66 137.714V135.778H65ZM68.1114 143.536L67.5551 144.367C66.6827 143.783 65.9315 143.032 65.3475 142.159L66.1784 141.603L67.0094 141.047C67.448 141.702 68.0125 142.266 68.6677 142.705L68.1114 143.536ZM65 131.905H64V128.032H65H66V131.905H65ZM65 124.159H64V120.286H65H66V124.159H65ZM65 116.413H64V112.54H65H66V116.413H65ZM65 108.667H64V104.794H65H66V108.667H65ZM65 100.921H64V97.0476H65H66V100.921H65ZM65 93.1746H64V89.3016H65H66V93.1746H65ZM65 85.4286H64V81.5555H65H66V85.4286H65ZM65 77.6825H64V73.8095H65H66V77.6825H65ZM65 69.9365H64V68C64 67.4657 64.0524 66.9437 64.1523 66.4387L65.1333 66.6328L66.1142 66.8268C66.0395 67.2047 66 67.5967 66 68V69.9365H65ZM77.7857 61V60H81.6429V61V62H77.7857V61ZM85.5 61V60H89.3571V61V62H85.5V61ZM93.2143 61V60H97.0714V61V62H93.2143V61ZM100.929 61V60H104.786V61V62H100.929V61ZM108.643 61V60H112.5V61V62H108.643V61ZM116.357 61V60H120.214V61V62H116.357V61ZM133 73.8095H134V77.6825H133H132V73.8095H133ZM133 81.5556H134V85.4286H133H132V81.5556H133ZM133 89.3016H134V93.1746H133H132V89.3016H133ZM133 97.0476H134V100.921H133H132V97.0476H133ZM133 104.794H134V108.667H133H132V104.794H133ZM133 112.54H134V116.413H133H132V112.54H133ZM133 120.286H134V124.159H133H132V120.286H133ZM133 128.032H134V131.905H133H132V128.032H133ZM133 135.778H134V137.714C134 138.249 133.948 138.771 133.848 139.276L132.867 139.082L131.886 138.887C131.96 138.51 132 138.118 132 137.714V135.778H133ZM120.214 144.714V145.714H116.357V144.714V143.714H120.214V144.714ZM112.5 144.714V145.714H108.643V144.714V143.714H112.5V144.714ZM104.786 144.714V145.714H100.929V144.714V143.714H104.786V144.714ZM97.0714 144.714V145.714H93.2143V144.714V143.714H97.0714V144.714ZM89.3571 144.714V145.714H85.5V144.714V143.714H89.3571V144.714ZM81.6429 144.714V145.714H77.7857V144.714V143.714H81.6429V144.714Z" fill="#999999"/>
<path fill-rule="evenodd" clip-rule="evenodd" d="M133.162 72.6439C133.222 72.7122 133.269 72.7889 133.301 72.8741C133.333 72.9593 133.349 73.0475 133.349 73.1386C133.349 73.3449 133.277 73.5209 133.131 73.6668C132.985 73.8126 132.809 73.8855 132.603 73.8855H124.372C123.256 73.8855 122.327 73.469 121.584 72.6359C120.842 71.8029 120.535 70.8321 120.663 69.7236L121.616 61.4669C121.626 61.3754 121.653 61.2888 121.695 61.2071C121.738 61.1255 121.794 61.0541 121.863 60.9931C121.937 60.9275 122.021 60.8785 122.115 60.8463C122.208 60.8141 122.305 60.801 122.403 60.8071C122.502 60.8132 122.596 60.8379 122.685 60.8814C122.774 60.9248 122.851 60.9836 122.917 61.0578L133.162 72.6439Z" stroke="#979797" stroke-width="2" stroke-linecap="round" stroke-linejoin="round" stroke-dasharray="4 4"/>
<path d="M74.7141 79.7144C74.1618 79.7144 73.7141 80.1621 73.7141 80.7144C73.7141 81.2666 74.1618 81.7144 74.7141 81.7144V79.7144ZM117.571 81.7144C118.124 81.7144 118.571 81.2666 118.571 80.7144C118.571 80.1621 118.124 79.7144 117.571 79.7144V81.7144ZM74.7141 81.7144H75.6881V79.7144H74.7141V81.7144ZM77.6362 81.7144H79.5842V79.7144H77.6362V81.7144ZM81.5323 81.7144H83.4803V79.7144H81.5323V81.7144ZM85.4284 81.7144H87.3764V79.7144H85.4284V81.7144ZM89.3245 81.7144H91.2726V79.7144H89.3245V81.7144ZM93.2206 81.7144H95.1687V79.7144H93.2206V81.7144ZM97.1167 81.7144H99.0648V79.7144H97.1167V81.7144ZM101.013 81.7144H102.961V79.7144H101.013V81.7144ZM104.909 81.7144H106.857V79.7144H104.909V81.7144ZM108.805 81.7144H110.753V79.7144H108.805V81.7144ZM112.701 81.7144H114.649V79.7144H112.701V81.7144ZM116.597 81.7144H117.571V79.7144H116.597V81.7144Z" fill="#999999"/>
<path d="M74.7141 99.7142C74.1618 99.7142 73.7141 100.162 73.7141 100.714C73.7141 101.267 74.1618 101.714 74.7141 101.714V99.7142ZM117.571 101.714C118.124 101.714 118.571 101.267 118.571 100.714C118.571 100.162 118.124 99.7142 117.571 99.7142V101.714ZM74.7141 101.714H75.6881V99.7142H74.7141V101.714ZM77.6362 101.714H79.5842V99.7142H77.6362V101.714ZM81.5323 101.714H83.4803V99.7142H81.5323V101.714ZM85.4284 101.714H87.3764V99.7142H85.4284V101.714ZM89.3245 101.714H91.2726V99.7142H89.3245V101.714ZM93.2206 101.714H95.1687V99.7142H93.2206V101.714ZM97.1167 101.714H99.0648V99.7142H97.1167V101.714ZM101.013 101.714H102.961V99.7142H101.013V101.714ZM104.909 101.714H106.857V99.7142H104.909V101.714ZM108.805 101.714H110.753V99.7142H108.805V101.714ZM112.701 101.714H114.649V99.7142H112.701V101.714ZM116.597 101.714H117.571V99.7142H116.597V101.714Z" fill="#999999"/>
<path d="M74.7141 87.5714C74.1618 87.5714 73.7141 88.0191 73.7141 88.5714C73.7141 89.1237 74.1618 89.5714 74.7141 89.5714V87.5714ZM106.857 89.5714C107.409 89.5714 107.857 89.1237 107.857 88.5714C107.857 88.0191 107.409 87.5714 106.857 87.5714V89.5714ZM74.7141 89.5714H75.7186V87.5714H74.7141V89.5714ZM77.7275 89.5714H79.7364V87.5714H77.7275V89.5714ZM81.7454 89.5714H83.7543V87.5714H81.7454V89.5714ZM85.7632 89.5714H87.7721V87.5714H85.7632V89.5714ZM89.7811 89.5714H91.79V87.5714H89.7811V89.5714ZM93.7989 89.5714H95.8079V87.5714H93.7989V89.5714ZM97.8168 89.5714H99.8257V87.5714H97.8168V89.5714ZM101.835 89.5714H103.844V87.5714H101.835V89.5714ZM105.853 89.5714H106.857V87.5714H105.853V89.5714Z" fill="#999999"/>
<path d="M74.7141 107.572C74.1618 107.572 73.7141 108.019 73.7141 108.572C73.7141 109.124 74.1618 109.572 74.7141 109.572V107.572ZM106.857 109.572C107.409 109.572 107.857 109.124 107.857 108.572C107.857 108.019 107.409 107.572 106.857 107.572V109.572ZM74.7141 109.572H75.7186V107.572H74.7141V109.572ZM77.7275 109.572H79.7364V107.572H77.7275V109.572ZM81.7454 109.572H83.7543V107.572H81.7454V109.572ZM85.7632 109.572H87.7721V107.572H85.7632V109.572ZM89.7811 109.572H91.79V107.572H89.7811V109.572ZM93.7989 109.572H95.8079V107.572H93.7989V109.572ZM97.8168 109.572H99.8257V107.572H97.8168V109.572ZM101.835 109.572H103.844V107.572H101.835V109.572ZM105.853 109.572H106.857V107.572H105.853V109.572Z" fill="#999999"/>
<ellipse cx="145.772" cy="103.772" rx="26.8862" ry="26.8862" fill="#C7C7C7" fill-opacity="0.7"/>
<rect x="163.03" y="122.257" width="2.60189" height="13.0956" rx="1.30095" transform="rotate(-45 163.03 122.257)" fill="#979797"/>
<path fill-rule="evenodd" clip-rule="evenodd" d="M173.232 128.778L171.391 130.619C170.713 131.296 170.375 132.113 170.375 133.071C170.375 134.029 170.713 134.846 171.391 135.524L182.431 146.564C183.108 147.241 183.926 147.58 184.883 147.58C185.841 147.58 186.659 147.241 187.336 146.564L189.177 144.723C189.854 144.045 190.193 143.228 190.193 142.27C190.193 141.312 189.854 140.495 189.177 139.818L178.137 128.778C177.459 128.1 176.642 127.762 175.684 127.762C174.726 127.762 173.909 128.1 173.232 128.778ZM173.231 133.684C172.822 133.275 172.822 132.867 173.231 132.459L175.072 130.617C175.48 130.209 175.889 130.209 176.297 130.617L187.337 141.658C187.746 142.066 187.746 142.474 187.337 142.883L185.496 144.724C185.088 145.132 184.679 145.132 184.271 144.724L173.231 133.684Z" fill="#979797"/>
<path fill-rule="evenodd" clip-rule="evenodd" d="M164.644 84.6222C175.144 95.122 175.144 112.145 164.644 122.645C154.144 133.145 137.121 133.145 126.621 122.645C116.121 112.145 116.121 95.122 126.621 84.6222C137.121 74.1225 154.144 74.1225 164.644 84.6222ZM169.917 103.634C169.917 110.34 167.546 116.063 162.805 120.805C158.063 125.547 152.339 127.918 145.633 127.918C138.927 127.918 133.203 125.547 128.461 120.805C123.719 116.063 121.349 110.34 121.349 103.634C121.349 96.9277 123.719 91.2039 128.461 86.4621C133.203 81.7203 138.927 79.3493 145.633 79.3493C152.339 79.3493 158.063 81.7203 162.805 86.4621C167.546 91.2039 169.917 96.9277 169.917 103.634Z" fill="#979797"/>
<rect x="155.099" y="93.9067" width="2.60189" height="27.7535" rx="1.30095" transform="rotate(45 155.099 93.9067)" fill="#979797"/>
<rect width="2.60189" height="27.7535" rx="1.30095" transform="matrix(-0.707107 0.707107 0.707107 0.707107 137.314 93.9059)" fill="#979797"/>
</g>
<defs>
<clipPath id="clip0_545_30856">
<rect width="200" height="200" fill="white"/>
</clipPath>
</defs>
</svg>
