<svg width="200" height="200" viewBox="0 0 200 200" fill="none" xmlns="http://www.w3.org/2000/svg">
<g clip-path="url(#clip0_545_30826)">
<circle cx="48.2758" cy="174.843" r="2.09121" fill="#39BEE8"/>
<circle cx="144.471" cy="177.631" r="3.48535" fill="#FF9F67"/>
<ellipse cx="108.224" cy="21.4873" rx="3.48535" ry="3.48535" fill="#B3DB64"/>
<rect width="12.5473" height="2.78828" rx="1.39414" transform="matrix(0.981627 -0.190809 -0.190809 -0.981627 177.28 95.0962)" fill="#999999"/>
<rect x="167.297" y="81.441" width="12.5473" height="2.78828" rx="1.39414" transform="rotate(-60 167.297 81.441)" fill="#999999"/>
<rect x="173.341" y="85.9897" width="12.5473" height="2.78828" rx="1.39414" transform="rotate(-40 173.341 85.9897)" fill="#999999"/>
<circle cx="99.5" cy="102.5" r="71.5" fill="#F4F4F4"/>
<path d="M94.7534 94.6639C95.2764 100.641 90.8138 105.959 84.8366 106.482C78.8595 107.005 73.5412 102.543 73.0183 96.5655L64.8676 97.2786L54.4754 103.663L55.9016 119.965L66.7692 119.014L69.6215 151.616L107.658 148.289L104.806 115.686L115.673 114.735L114.247 98.4338L102.904 93.9508L94.7534 94.6639Z" fill="#F4F4F4" stroke="#999999" stroke-width="2" stroke-miterlimit="10" stroke-linecap="round" stroke-linejoin="round" stroke-dasharray="6 6"/>
<path d="M86.2258 64.2856L89.335 72.8282L86.1315 73.9942C86.1315 73.9942 84.6935 70.0432 83.7996 67.5872C82.6336 64.3837 80.1093 64.0932 78.9433 60.8897C77.6219 57.2591 79.1357 54.7732 79.1357 54.7732L95.6812 61.6906C96.992 62.3018 98.4289 62.2626 99.8171 61.7573L101.953 60.98C103.768 60.3193 105.661 61.2022 106.322 63.0175L107.488 66.221C107.488 66.221 106.42 66.6097 102.149 68.1643C97.8777 69.719 89.2157 63.1973 86.2258 64.2856Z" stroke="#999999" stroke-width="2" stroke-miterlimit="10" stroke-linecap="round" stroke-linejoin="round" stroke-dasharray="4 4"/>
<path d="M129.545 85.6364C129.545 85.6364 123 87.9273 123 90.5454C123 93.4909 133.145 97.0909 139.364 97.0909C145.909 97.0909 155.727 88.9091 155.727 88.9091" stroke="#999999" stroke-width="2" stroke-miterlimit="10" stroke-linejoin="round" stroke-dasharray="6 6"/>
<path d="M141 66.3271C147.545 67.7999 152.455 73.6908 152.455 80.7271V89.7271" stroke="#999999" stroke-width="2" stroke-miterlimit="10" stroke-linejoin="round" stroke-dasharray="6 6"/>
<path d="M159 87.2727C159 87.2727 154.582 90.5455 144.272 90.5455C133.963 90.5455 129.545 87.2727 129.545 87.2727V80.7273C129.545 72.5455 136.091 66 144.272 66C152.454 66 159 72.5455 159 80.7273V87.2727Z" stroke="#999999" stroke-width="2" stroke-miterlimit="10" stroke-linecap="square" stroke-linejoin="round" stroke-dasharray="6 6"/>
<ellipse cx="145.772" cy="103.772" rx="26.8862" ry="26.8862" fill="#C7C7C7" fill-opacity="0.7"/>
<rect x="163.03" y="122.257" width="2.60189" height="13.0956" rx="1.30095" transform="rotate(-45 163.03 122.257)" fill="#979797"/>
<path fill-rule="evenodd" clip-rule="evenodd" d="M173.232 128.778L171.391 130.619C170.713 131.296 170.375 132.113 170.375 133.071C170.375 134.029 170.713 134.846 171.391 135.524L182.431 146.564C183.108 147.241 183.926 147.58 184.883 147.58C185.841 147.58 186.659 147.241 187.336 146.564L189.177 144.723C189.854 144.045 190.193 143.228 190.193 142.27C190.193 141.312 189.854 140.495 189.177 139.818L178.137 128.778C177.459 128.1 176.642 127.762 175.684 127.762C174.726 127.762 173.909 128.1 173.232 128.778ZM173.231 133.684C172.822 133.275 172.822 132.867 173.231 132.459L175.072 130.617C175.48 130.209 175.889 130.209 176.297 130.617L187.337 141.658C187.746 142.066 187.746 142.474 187.337 142.883L185.496 144.724C185.088 145.132 184.679 145.132 184.271 144.724L173.231 133.684Z" fill="#979797"/>
<path fill-rule="evenodd" clip-rule="evenodd" d="M164.644 84.6222C175.144 95.122 175.144 112.145 164.644 122.645C154.144 133.145 137.121 133.145 126.621 122.645C116.121 112.145 116.121 95.122 126.621 84.6222C137.121 74.1225 154.144 74.1225 164.644 84.6222ZM169.917 103.634C169.917 110.34 167.546 116.063 162.805 120.805C158.063 125.547 152.339 127.918 145.633 127.918C138.927 127.918 133.203 125.547 128.461 120.805C123.719 116.063 121.349 110.34 121.349 103.634C121.349 96.9277 123.719 91.2039 128.461 86.4621C133.203 81.7203 138.927 79.3493 145.633 79.3493C152.339 79.3493 158.063 81.7203 162.805 86.4621C167.546 91.2039 169.917 96.9277 169.917 103.634Z" fill="#979797"/>
<rect x="155.099" y="93.9067" width="2.60189" height="27.7535" rx="1.30095" transform="rotate(45 155.099 93.9067)" fill="#979797"/>
<rect width="2.60189" height="27.7535" rx="1.30095" transform="matrix(-0.707107 0.707107 0.707107 0.707107 137.314 93.9059)" fill="#979797"/>
</g>
<defs>
<clipPath id="clip0_545_30826">
<rect width="200" height="200" fill="white"/>
</clipPath>
</defs>
</svg>
