<svg width="200" height="200" viewBox="0 0 200 200" fill="none" xmlns="http://www.w3.org/2000/svg">
<g clip-path="url(#clip0_545_30889)">
<circle cx="48.2758" cy="174.843" r="2.09121" fill="#39BEE8"/>
<circle cx="144.471" cy="177.631" r="3.48535" fill="#FF9F67"/>
<ellipse cx="108.224" cy="21.4873" rx="3.48535" ry="3.48535" fill="#B3DB64"/>
<rect width="12.5473" height="2.78828" rx="1.39414" transform="matrix(0.981627 -0.190809 -0.190809 -0.981627 177.28 95.0962)" fill="#999999"/>
<rect x="167.297" y="81.441" width="12.5473" height="2.78828" rx="1.39414" transform="rotate(-60 167.297 81.441)" fill="#999999"/>
<rect x="173.341" y="85.9897" width="12.5473" height="2.78828" rx="1.39414" transform="rotate(-40 173.341 85.9897)" fill="#999999"/>
<circle cx="99.5" cy="102.5" r="71.5" fill="#F4F4F4"/>
<path fill-rule="evenodd" clip-rule="evenodd" d="M98.5336 95.3333C108.843 95.3333 117.2 86.976 117.2 76.6667C117.2 66.3574 108.843 58 98.5336 58C88.2243 58 79.8669 66.3574 79.8669 76.6667C79.8669 86.976 88.2243 95.3333 98.5336 95.3333ZM99 95.3332C79.67 95.3332 64 111.003 64 130.333V144.515C64 145.703 64.9633 146.667 66.1517 146.667H131.848C133.037 146.667 134 145.703 134 144.515V130.333C134 111.003 118.33 95.3332 99 95.3332Z" fill="#F4F4F4"/>
<path d="M118.2 76.6667C118.2 76.0167 118.169 75.3738 118.107 74.7394L116.116 74.9332C116.172 75.5032 116.2 76.0815 116.2 76.6667H118.2ZM117.358 70.9562C116.981 69.7119 116.484 68.5198 115.881 67.3935L114.118 68.3379C114.66 69.3493 115.106 70.4194 115.444 71.5361L117.358 70.9562ZM113.736 64.1896C112.919 63.1947 112.006 62.2814 111.011 61.4639L109.741 63.0092C110.635 63.744 111.456 64.565 112.191 65.4593L113.736 64.1896ZM107.807 59.3193C106.68 58.716 105.488 58.2191 104.244 57.8421L103.664 59.7562C104.781 60.0946 105.851 60.5406 106.862 61.0823L107.807 59.3193ZM100.461 57.0933C99.8265 57.0316 99.1836 57 98.5336 57V59C99.1188 59 99.697 59.0284 100.267 59.0839L100.461 57.0933ZM98.5336 57C97.8836 57 97.2407 57.0316 96.6064 57.0933L96.8001 59.0839C97.3702 59.0284 97.9484 59 98.5336 59V57ZM92.8232 57.8421C91.5788 58.2191 90.3868 58.716 89.2605 59.3193L90.2048 61.0823C91.2162 60.5406 92.2863 60.0946 93.4031 59.7562L92.8232 57.8421ZM86.0566 61.4639C85.0616 62.2814 84.1484 63.1947 83.3309 64.1897L84.8762 65.4593C85.611 64.565 86.4319 63.744 87.3262 63.0092L86.0566 61.4639ZM81.1862 67.3935C80.583 68.5198 80.0861 69.7119 79.7091 70.9562L81.6232 71.5361C81.9615 70.4194 82.4075 69.3493 82.9493 68.3379L81.1862 67.3935ZM78.9602 74.7394C78.8985 75.3738 78.8669 76.0167 78.8669 76.6667H80.8669C80.8669 76.0815 80.8954 75.5032 80.9508 74.9332L78.9602 74.7394ZM78.8669 76.6667C78.8669 77.3166 78.8985 77.9596 78.9602 78.5939L80.9508 78.4002C80.8954 77.8301 80.8669 77.2519 80.8669 76.6667H78.8669ZM79.7091 82.3771C80.0861 83.6214 80.583 84.8135 81.1862 85.9398L82.9493 84.9955C82.4075 83.984 81.9615 82.9139 81.6232 81.7972L79.7091 82.3771ZM83.3309 89.1437C84.1484 90.1387 85.0616 91.0519 86.0566 91.8694L87.3262 90.3241C86.4319 89.5893 85.611 88.7684 84.8762 87.874L83.3309 89.1437ZM89.2605 94.014C90.3868 94.6173 91.5788 95.1142 92.8232 95.4912L93.4031 93.5771C92.2863 93.2388 91.2162 92.7927 90.2048 92.251L89.2605 94.014ZM96.6064 96.24C97.2407 96.3018 97.8836 96.3333 98.5336 96.3333V94.3333C97.9484 94.3333 97.3702 94.3049 96.8001 94.2494L96.6064 96.24ZM98.5336 96.3333C99.1836 96.3333 99.8265 96.3018 100.461 96.24L100.267 94.2494C99.697 94.3049 99.1188 94.3333 98.5336 94.3333V96.3333ZM104.244 95.4912C105.488 95.1142 106.68 94.6173 107.807 94.014L106.862 92.251C105.851 92.7927 104.781 93.2388 103.664 93.5771L104.244 95.4912ZM111.011 91.8694C112.006 91.0519 112.919 90.1387 113.736 89.1437L112.191 87.874C111.456 88.7684 110.635 89.5893 109.741 90.3241L111.011 91.8694ZM115.881 85.9398C116.484 84.8135 116.981 83.6214 117.358 82.3771L115.444 81.7972C115.106 82.9139 114.66 83.984 114.118 84.9955L115.881 85.9398ZM118.107 78.5939C118.169 77.9595 118.2 77.3166 118.2 76.6667H116.2C116.2 77.2519 116.172 77.8301 116.116 78.4002L118.107 78.5939ZM63 130.333V132.106H65V130.333H63ZM63 135.651V139.197H65V135.651H63ZM63 142.742V144.515H65V142.742H63ZM63 144.515C63 144.94 63.0849 145.349 63.2395 145.722L65.087 144.955C65.0313 144.821 65 144.673 65 144.515H63ZM64.945 147.427C65.318 147.582 65.7262 147.667 66.1517 147.667V145.667C65.9937 145.667 65.8455 145.635 65.7111 145.58L64.945 147.427ZM66.1517 147.667H68.2047V145.667H66.1517V147.667ZM72.3108 147.667H76.4168V145.667H72.3108V147.667ZM80.5228 147.667H84.6289V145.667H80.5228V147.667ZM88.7349 147.667H92.8409V145.667H88.7349V147.667ZM96.947 147.667H101.053V145.667H96.947V147.667ZM105.159 147.667H109.265V145.667H105.159V147.667ZM113.371 147.667H117.477V145.667H113.371V147.667ZM121.583 147.667H125.689V145.667H121.583V147.667ZM129.795 147.667H131.848V145.667H129.795V147.667ZM131.848 147.667C132.274 147.667 132.682 147.582 133.055 147.427L132.289 145.58C132.154 145.635 132.006 145.667 131.848 145.667V147.667ZM134.76 145.722C134.915 145.349 135 144.94 135 144.515H133C133 144.673 132.969 144.821 132.913 144.955L134.76 145.722ZM135 144.515V142.742H133V144.515H135ZM135 139.197V135.651H133V139.197H135ZM135 132.106V130.333H133V132.106H135ZM135 130.333C135 129.656 134.981 128.983 134.944 128.314L132.947 128.425C132.982 129.056 133 129.693 133 130.333H135ZM134.497 124.301C134.271 122.962 133.971 121.648 133.601 120.364L131.679 120.916C132.028 122.129 132.311 123.37 132.525 124.634L134.497 124.301ZM132.268 116.553C131.75 115.303 131.163 114.089 130.513 112.916L128.764 113.885C129.378 114.993 129.931 116.139 130.42 117.319L132.268 116.553ZM128.362 109.499C127.581 108.4 126.74 107.347 125.843 106.344L124.352 107.678C125.199 108.625 125.994 109.62 126.732 110.658L128.362 109.499ZM122.989 103.49C121.986 102.593 120.933 101.752 119.834 100.971L118.676 102.601C119.714 103.339 120.708 104.134 121.656 104.981L122.989 103.49ZM116.417 98.8198C115.244 98.1698 114.03 97.5834 112.781 97.0653L112.015 98.9127C113.194 99.4019 114.34 99.9555 115.448 100.569L116.417 98.8198ZM108.97 95.7318C107.685 95.3623 106.371 95.0624 105.032 94.8365L104.699 96.8086C105.964 97.0219 107.204 97.3051 108.417 97.6538L108.97 95.7318ZM101.019 94.3889C100.35 94.3519 99.6774 94.3332 99 94.3332V96.3332C99.6405 96.3332 100.277 96.3509 100.908 96.3858L101.019 94.3889ZM99 94.3332C98.3226 94.3332 97.6496 94.3519 96.9812 94.3889L97.0917 96.3858C97.7232 96.3509 98.3595 96.3332 99 96.3332V94.3332ZM92.968 94.8365C91.629 95.0624 90.315 95.3623 89.0304 95.7318L89.5832 97.6538C90.7959 97.3051 92.0364 97.0219 93.3008 96.8086L92.968 94.8365ZM85.2194 97.0653C83.97 97.5834 82.7561 98.1698 81.5825 98.8198L82.5515 100.569C83.6598 99.9555 84.8059 99.4019 85.9855 98.9127L85.2194 97.0653ZM78.1658 100.971C77.0669 101.752 76.0137 102.593 75.0112 103.49L76.3444 104.981C77.2916 104.134 78.2864 103.339 79.3245 102.601L78.1658 100.971ZM72.1567 106.344C71.2602 107.347 70.419 108.4 69.6378 109.499L71.268 110.658C72.0058 109.62 72.8005 108.625 73.6476 107.678L72.1567 106.344ZM67.4866 112.916C66.8366 114.089 66.2502 115.303 65.7321 116.553L67.5795 117.319C68.0687 116.139 68.6224 114.993 69.2362 113.885L67.4866 112.916ZM64.3986 120.364C64.0291 121.648 63.7292 122.962 63.5033 124.301L65.4754 124.634C65.6888 123.37 65.9719 122.129 66.3207 120.916L64.3986 120.364ZM63.0557 128.314C63.0187 128.983 63 129.656 63 130.333H65C65 129.693 65.0177 129.056 65.0526 128.425L63.0557 128.314Z" fill="#979797"/>
<ellipse cx="145.772" cy="103.772" rx="26.8862" ry="26.8862" fill="#C7C7C7" fill-opacity="0.7"/>
<rect x="163.03" y="122.257" width="2.60189" height="13.0956" rx="1.30095" transform="rotate(-45 163.03 122.257)" fill="#979797"/>
<path fill-rule="evenodd" clip-rule="evenodd" d="M173.232 128.778L171.391 130.619C170.713 131.296 170.375 132.113 170.375 133.071C170.375 134.029 170.713 134.846 171.391 135.524L182.431 146.564C183.108 147.241 183.926 147.58 184.883 147.58C185.841 147.58 186.659 147.241 187.336 146.564L189.177 144.723C189.854 144.045 190.193 143.228 190.193 142.27C190.193 141.312 189.854 140.495 189.177 139.818L178.137 128.778C177.459 128.1 176.642 127.762 175.684 127.762C174.726 127.762 173.909 128.1 173.232 128.778ZM173.231 133.684C172.822 133.275 172.822 132.867 173.231 132.459L175.072 130.617C175.48 130.209 175.889 130.209 176.297 130.617L187.337 141.658C187.746 142.066 187.746 142.474 187.337 142.883L185.496 144.724C185.088 145.132 184.679 145.132 184.271 144.724L173.231 133.684Z" fill="#979797"/>
<path fill-rule="evenodd" clip-rule="evenodd" d="M164.644 84.6222C175.144 95.122 175.144 112.145 164.644 122.645C154.144 133.145 137.121 133.145 126.621 122.645C116.121 112.145 116.121 95.122 126.621 84.6222C137.121 74.1225 154.144 74.1225 164.644 84.6222ZM169.917 103.634C169.917 110.34 167.546 116.063 162.805 120.805C158.063 125.547 152.339 127.918 145.633 127.918C138.927 127.918 133.203 125.547 128.461 120.805C123.719 116.063 121.349 110.34 121.349 103.634C121.349 96.9277 123.719 91.2039 128.461 86.4621C133.203 81.7203 138.927 79.3493 145.633 79.3493C152.339 79.3493 158.063 81.7203 162.805 86.4621C167.546 91.2039 169.917 96.9277 169.917 103.634Z" fill="#979797"/>
<rect x="155.099" y="93.9067" width="2.60189" height="27.7535" rx="1.30095" transform="rotate(45 155.099 93.9067)" fill="#979797"/>
<rect width="2.60189" height="27.7535" rx="1.30095" transform="matrix(-0.707107 0.707107 0.707107 0.707107 137.314 93.9059)" fill="#979797"/>
</g>
<defs>
<clipPath id="clip0_545_30889">
<rect width="200" height="200" fill="white"/>
</clipPath>
</defs>
</svg>
