<svg width="24" height="24" viewBox="0 0 24 24" fill="none" xmlns="http://www.w3.org/2000/svg">
<path d="M12.4286 21.8571C17.6358 21.8571 21.8571 17.6358 21.8571 12.4286C21.8571 7.22132 17.6358 3 12.4286 3C7.22132 3 3 7.22132 3 12.4286C3 17.6358 7.22132 21.8571 12.4286 21.8571Z" fill="#444444" stroke="#444444" stroke-miterlimit="10" stroke-linecap="square"/>
<path d="M12.784 14.508V7.05603H13.972V14.508C13.972 15.388 13.7 16.136 13.156 16.752C12.62 17.376 11.968 17.688 11.2 17.688C10.792 17.688 10.392 17.632 10 17.52L10.12 16.584C10.336 16.728 10.612 16.852 10.948 16.956C11.284 17.068 11.572 17.124 11.812 17.124C12.084 16.956 12.312 16.62 12.496 16.116C12.688 15.62 12.784 15.084 12.784 14.508Z" fill="white"/>
</svg>
