<svg width="24" height="24" viewBox="0 0 24 24" fill="none" xmlns="http://www.w3.org/2000/svg">
<path d="M12.4286 21.8571C17.6358 21.8571 21.8571 17.6358 21.8571 12.4286C21.8571 7.22132 17.6358 3 12.4286 3C7.22132 3 3 7.22132 3 12.4286C3 17.6358 7.22132 21.8571 12.4286 21.8571Z" stroke="#444444" stroke-miterlimit="10" stroke-linecap="square"/>
<path d="M12.6185 14.0651V7.05603H13.7359V14.0651C13.7359 14.8927 13.4801 15.5963 12.9684 16.1757C12.4643 16.7626 11.851 17.056 11.1287 17.056C10.7449 17.056 10.3687 17.0034 10 16.898L10.1129 16.0177C10.316 16.1531 10.5756 16.2697 10.8916 16.3675C11.2077 16.4729 11.4786 16.5256 11.7043 16.5256C11.9601 16.3675 12.1746 16.0515 12.3476 15.5775C12.5282 15.111 12.6185 14.6068 12.6185 14.0651Z" fill="#444444"/>
</svg>
