<svg width="24" height="24" viewBox="0 0 24 24" fill="none" xmlns="http://www.w3.org/2000/svg">
<path fill-rule="evenodd" clip-rule="evenodd" d="M15.9472 6.6261L16.2193 7.05689C17.4587 9.0193 18.8853 10.0378 19.9876 10.5674C20.5403 10.833 21.0143 10.9769 21.3457 11.0541C21.5114 11.0927 21.6413 11.1145 21.7273 11.1266C21.7703 11.1326 21.8022 11.1362 21.8222 11.1382L21.843 11.1401L21.8454 11.1403C21.8452 11.1403 21.845 11.1403 21.8184 11.568C21.7918 11.9958 21.7915 11.9958 21.7912 11.9957L21.7907 11.9957L21.7892 11.9956L21.7854 11.9953L21.7741 11.9945C21.765 11.9938 21.7526 11.9927 21.7372 11.9911C21.7062 11.988 21.6628 11.9831 21.6081 11.9754C21.4987 11.9601 21.3436 11.9337 21.1513 11.8889C20.7668 11.7993 20.2325 11.636 19.6163 11.34C18.4645 10.7865 17.0358 9.77337 15.7683 7.92998C13.1581 10.1 10.6438 10.2361 8.50774 10.2437C8.37484 10.2442 8.24413 10.2443 8.11556 10.2444C6.0443 10.2462 4.52931 10.2475 3.38636 11.7712L2.70068 11.2569C4.10994 9.37815 6.06124 9.38229 8.04279 9.3865C8.19665 9.38683 8.35068 9.38716 8.50466 9.38661C10.6772 9.37879 13.0638 9.23508 15.5694 6.96795L15.9472 6.6261Z" fill="#494949"/>
<path fill-rule="evenodd" clip-rule="evenodd" d="M12.4284 3.42855C7.45787 3.42855 3.42843 7.45799 3.42843 12.4286C3.42843 17.3991 7.45787 21.4286 12.4284 21.4286C17.399 21.4286 21.4284 17.3991 21.4284 12.4286C21.4284 7.45799 17.399 3.42855 12.4284 3.42855ZM2.57129 12.4286C2.57129 6.9846 6.98448 2.57141 12.4284 2.57141C17.8724 2.57141 22.2856 6.9846 22.2856 12.4286C22.2856 17.8725 17.8724 22.2857 12.4284 22.2857C6.98448 22.2857 2.57129 17.8725 2.57129 12.4286Z" fill="#494949"/>
<path d="M8.14314 15.4285C8.85322 15.4285 9.42885 14.8529 9.42885 14.1428C9.42885 13.4327 8.85322 12.8571 8.14314 12.8571C7.43306 12.8571 6.85742 13.4327 6.85742 14.1428C6.85742 14.8529 7.43306 15.4285 8.14314 15.4285Z" fill="#444444"/>
<path d="M15.857 15.4285C16.5671 15.4285 17.1427 14.8529 17.1427 14.1428C17.1427 13.4327 16.5671 12.8571 15.857 12.8571C15.1469 12.8571 14.5713 13.4327 14.5713 14.1428C14.5713 14.8529 15.1469 15.4285 15.857 15.4285Z" fill="#444444"/>
</svg>
