<svg width="24" height="24" viewBox="0 0 24 24" fill="none" xmlns="http://www.w3.org/2000/svg">
<path d="M8.14314 15.4285C8.85322 15.4285 9.42885 14.8529 9.42885 14.1428C9.42885 13.4327 8.85322 12.8571 8.14314 12.8571C7.43306 12.8571 6.85742 13.4327 6.85742 14.1428C6.85742 14.8529 7.43306 15.4285 8.14314 15.4285Z" fill="#444444"/>
<path d="M15.857 15.4285C16.5671 15.4285 17.1427 14.8529 17.1427 14.1428C17.1427 13.4327 16.5671 12.8571 15.857 12.8571C15.1469 12.8571 14.5713 13.4327 14.5713 14.1428C14.5713 14.8529 15.1469 15.4285 15.857 15.4285Z" fill="#444444"/>
<path d="M12.0001 1.71423C6.32835 1.71423 1.71436 6.32823 1.71436 11.9999C1.71436 17.6717 6.32835 22.2857 12.0001 22.2857C17.6718 22.2857 22.2858 17.6717 22.2858 11.9999C22.2858 6.32823 17.6718 1.71423 12.0001 1.71423ZM12.0001 20.5714C7.27378 20.5714 3.42864 16.7262 3.42864 11.9999C3.45521 11.1428 5.60921 10.2437 7.59007 10.2437C7.60807 10.2437 7.62521 10.2437 7.64321 10.2437C9.8075 10.2419 12.4784 10.2471 15.2538 8.1188C17.4644 11.0965 20.5715 11.9999 20.5715 11.9999C20.5715 16.7262 16.7264 20.5714 12.0001 20.5714Z" fill="#444444"/>
</svg>
