<svg width="18" height="16" viewBox="0 0 18 16" fill="none" xmlns="http://www.w3.org/2000/svg">
<path d="M9.44194 14.5533L15.7726 8.22267C17.3281 6.66717 17.5576 4.10814 16.0855 2.47343C15.7168 2.06277 15.2683 1.73155 14.7673 1.49997C14.2664 1.26839 13.7235 1.1413 13.1718 1.12647C12.6201 1.11163 12.0712 1.20936 11.5585 1.41368C11.0458 1.618 10.5801 1.92464 10.1899 2.31488L9 3.50476L7.97267 2.47742C6.41717 0.921917 3.85814 0.692428 2.22343 2.16446C1.81277 2.53318 1.48155 2.9817 1.24997 3.48266C1.01839 3.98362 0.891304 4.52651 0.876468 5.0782C0.861632 5.6299 0.959358 6.17883 1.16368 6.69151C1.368 7.20419 1.67464 7.66987 2.06488 8.06012L8.55806 14.5533C8.67527 14.6705 8.83424 14.7364 9 14.7364C9.16576 14.7364 9.32473 14.6705 9.44194 14.5533V14.5533Z" stroke="#444444" stroke-linecap="round" stroke-linejoin="round"/>
</svg>
