<svg width="16" height="16" viewBox="0 0 16 16" fill="none" xmlns="http://www.w3.org/2000/svg">
    <path
        d="M13 6.33301H3.66668C2.9303 6.33301 2.33334 6.92996 2.33334 7.66634V12.9997C2.33334 13.7361 2.9303 14.333 3.66668 14.333H13C13.7364 14.333 14.3333 13.7361 14.3333 12.9997V7.66634C14.3333 6.92996 13.7364 6.33301 13 6.33301Z"
        stroke="#444444" stroke-miterlimit="10" stroke-linecap="square" />
    <path
        d="M8.33333 11.6667C9.06971 11.6667 9.66667 11.0697 9.66667 10.3333C9.66667 9.59695 9.06971 9 8.33333 9C7.59695 9 7 9.59695 7 10.3333C7 11.0697 7.59695 11.6667 8.33333 11.6667Z"
        stroke="#444444" stroke-miterlimit="10" stroke-linecap="square" />
    <path
        d="M11.6667 5.66618V4.99951C11.6754 4.12434 11.3361 3.28153 10.7235 2.65644C10.111 2.03135 9.27517 1.67515 8.4 1.66618H8.33333C7.45816 1.65747 6.61535 1.99671 5.99026 2.6093C5.36517 3.22189 5.00897 4.05767 5 4.93285V5.66618"
        stroke="#444444" stroke-miterlimit="10" stroke-linecap="square" />
</svg>
