<svg width="18" height="16" viewBox="0 0 20 20" fill="none" xmlns="http://www.w3.org/2000/svg">
<path d="M17.549 4.055C17.1246 3.57931 16.607 3.19591 16.0282 2.92859C15.4495 2.66128 14.822 2.51575 14.1847 2.50105C13.5492 2.48769 12.9176 2.60222 12.3273 2.83782C11.737 3.07342 11.2 3.42529 10.7484 3.87251L10.0001 4.6208L9.41418 4.03547C7.59168 2.21113 4.62537 2.05793 2.80652 3.69978C2.33244 4.12503 1.95003 4.64246 1.68265 5.22048C1.41527 5.79849 1.26853 6.42494 1.25139 7.06157C1.23425 7.69819 1.34708 8.33163 1.58298 8.92319C1.81888 9.51475 2.1729 10.052 2.62341 10.5021L9.11633 16.9951C9.35088 17.2292 9.66873 17.3607 10.0001 17.3607C10.3315 17.3607 10.6494 17.2292 10.8839 16.9951L17.2145 10.6645C19.0382 8.84016 19.1884 5.87507 17.549 4.055Z" fill="#444444"/>
</svg>
