<svg width="19" height="19" viewBox="0 0 19 19" fill="none" xmlns="http://www.w3.org/2000/svg">
    <path d="M18 17.9997L12.5623 12.562" stroke="white" stroke-miterlimit="10"
        stroke-linecap="square" />
    <path
        d="M7.71429 14.5712C11.5014 14.5712 14.5714 11.5012 14.5714 7.71408C14.5714 3.92698 11.5014 0.856934 7.71429 0.856934C3.92719 0.856934 0.857143 3.92698 0.857143 7.71408C0.857143 11.5012 3.92719 14.5712 7.71429 14.5712Z"
        stroke="white" stroke-miterlimit="10" stroke-linecap="square" />
    <path d="M18.0001 18.0002L12.5624 12.5625" stroke="#444444" stroke-miterlimit="10"
        stroke-linecap="square" />
    <path
        d="M7.71432 14.5717C11.5014 14.5717 14.5715 11.5017 14.5715 7.71456C14.5715 3.92747 11.5014 0.857422 7.71432 0.857422C3.92722 0.857422 0.857178 3.92747 0.857178 7.71456C0.857178 11.5017 3.92722 14.5717 7.71432 14.5717Z"
        stroke="#444444" stroke-miterlimit="10" stroke-linecap="square" />
    <path d="M18.0001 18.0002L12.5624 12.5625" stroke="#444444" stroke-miterlimit="10"
        stroke-linecap="square" />
    <path
        d="M7.71432 14.5717C11.5014 14.5717 14.5715 11.5017 14.5715 7.71456C14.5715 3.92747 11.5014 0.857422 7.71432 0.857422C3.92722 0.857422 0.857178 3.92747 0.857178 7.71456C0.857178 11.5017 3.92722 14.5717 7.71432 14.5717Z"
        stroke="#444444" stroke-miterlimit="10" stroke-linecap="square" />
</svg>
