<svg width="20" height="4" viewBox="0 0 20 4" fill="none" xmlns="http://www.w3.org/2000/svg">
<path d="M9.99993 3.71373C10.9467 3.71373 11.7142 2.94622 11.7142 1.99944C11.7142 1.05267 10.9467 0.285156 9.99993 0.285156C9.05316 0.285156 8.28564 1.05267 8.28564 1.99944C8.28564 2.94622 9.05316 3.71373 9.99993 3.71373Z" fill="#444444"/>
<path d="M2.2857 3.71373C3.23247 3.71373 3.99998 2.94622 3.99998 1.99944C3.99998 1.05267 3.23247 0.285156 2.2857 0.285156C1.33892 0.285156 0.571411 1.05267 0.571411 1.99944C0.571411 2.94622 1.33892 3.71373 2.2857 3.71373Z" fill="#444444"/>
<path d="M17.7143 3.71373C18.6611 3.71373 19.4286 2.94622 19.4286 1.99944C19.4286 1.05267 18.6611 0.285156 17.7143 0.285156C16.7675 0.285156 16 1.05267 16 1.99944C16 2.94622 16.7675 3.71373 17.7143 3.71373Z" fill="#444444"/>
</svg>
